<svg xmlns="http://www.w3.org/2000/svg" width="150" height="95" viewBox="0 0 150 95" fill="none"><rect width="150" height="95" rx="8" fill="#C43840"></rect><path fill-rule="evenodd" clip-rule="evenodd" d="M14.043 15.0572C12.0638 15.315 10.5642 16.7093 10.1232 18.7017C10.0303 19.1214 10.0006 19.6208 10.0175 20.4778L10.0411 21.67H74.5837H139.126L139.117 20.3134C139.109 19.0854 139.088 18.8938 138.892 18.2926C138.375 16.7046 137.219 15.5957 135.623 15.1571C135.124 15.0198 132.061 15.012 74.8303 15.001C41.6834 14.9946 14.3291 15.0199 14.043 15.0572ZM34.3371 32.6552C31.6855 33.7989 31.3098 34.0091 31.1404 34.4442C31.0869 34.5815 31.0271 37.5787 30.9767 42.636C30.9027 50.0681 30.8857 50.6842 30.7275 51.6802C30.4962 53.1372 30.2204 54.0713 29.7222 55.0855C29.3707 55.8012 29.1917 56.0529 28.6332 56.6165C28.0942 57.1607 27.8299 57.3559 27.2662 57.6264C24.426 58.9887 20.3435 58.6701 17.8395 56.8907C17.5613 56.6929 16.8279 56.0564 16.2095 55.4761C14.8642 54.2136 14.4821 54.0196 13.8299 54.2676C13.4578 54.4091 10.3271 56.818 10.1607 57.0907C9.9542 57.4295 9.95659 57.9106 10.1669 58.3452C10.4816 58.9953 12.7924 61.0751 14.2936 62.0595C15.6487 62.948 17.4977 63.7365 19.047 64.0867C20.3793 64.3879 21.5431 64.4957 23.484 64.4982C26.6363 64.5022 28.6898 64.0816 30.9106 62.9772C32.0768 62.3974 32.8628 61.8279 33.8497 60.8477C35.5082 59.2005 36.5879 57.1668 37.2116 54.5155C37.611 52.8175 37.6259 52.3567 37.6259 41.7217C37.6259 33.8306 37.6044 31.7442 37.5226 31.6764C37.2312 31.4346 37.0082 31.5031 34.3371 32.6552ZM58.3338 31.6094C57.8731 31.774 53.2318 35.2252 53.0433 35.5433C52.8876 35.8063 52.8848 36.0889 52.9086 49.2475C52.924 57.7642 52.9624 62.7611 53.0135 62.896C53.0579 63.013 53.1749 63.1968 53.2737 63.3044C53.6363 63.6994 53.822 63.7254 56.2818 63.7254C58.6654 63.7254 58.884 63.6992 59.2369 63.3705C59.673 62.9645 59.6608 63.1115 59.7173 57.5925C59.769 52.5511 59.7736 52.4402 59.9422 52.1862C60.0368 52.0435 60.2805 51.8419 60.4836 51.7381C60.8401 51.5559 60.9145 51.5502 62.6218 51.5737C64.2805 51.5965 64.4085 51.6093 64.6761 51.7789C64.9112 51.9279 65.5509 52.9651 68.301 57.6555C71.4935 63.1002 71.6561 63.3593 71.9946 63.5382C72.3422 63.7221 72.397 63.7254 75.0621 63.7254H77.7758L78.1128 63.5279C78.3077 63.4136 78.5315 63.1851 78.6436 62.9856C79.0388 62.2823 79.1274 62.4579 75.43 56.6134C73.5992 53.7193 71.9845 51.1684 71.8419 50.9447L71.5826 50.5381L72.3021 50.2798C75.5172 49.1254 77.8077 46.4842 78.5384 43.0882C78.7377 42.1626 78.7398 40.1107 78.5424 39.2372C78.0933 37.2496 77.2582 35.6987 75.8992 34.3285C74.4253 32.8426 72.63 31.9206 70.6209 31.6177C69.5096 31.4502 58.7997 31.443 58.3338 31.6094ZM91.5608 31.6802C91.36 31.782 91.1337 31.9762 91.0578 32.1119C90.9819 32.2476 89.4134 36.5764 87.5724 41.7316C85.7314 46.8868 83.3383 53.5836 82.2545 56.6134C80.0801 62.6923 80.1257 62.5129 80.5968 63.1306C80.9743 63.6254 81.0876 63.6432 83.876 63.6432C86.6151 63.6432 86.6589 63.6366 87.056 63.1647C87.2666 62.9144 87.4716 62.3584 92.2116 49.1811C93.7471 44.9124 95.0523 41.3888 95.1121 41.3509C95.2754 41.2473 95.6416 41.2656 95.7375 41.3822C95.7841 41.4388 96.4521 43.2794 97.222 45.4726C97.9919 47.6658 99.5531 52.1057 100.691 55.339C101.83 58.5723 102.89 61.5987 103.049 62.0643C103.207 62.53 103.43 63.0216 103.543 63.1567C103.949 63.6388 103.978 63.6432 106.798 63.6432C109.347 63.6432 109.383 63.6408 109.657 63.4562C110.052 63.19 110.308 62.7745 110.308 62.3999C110.308 62.2009 109.782 60.611 108.878 58.0749C102.794 41.0203 99.6688 32.3221 99.5498 32.1119C99.4731 31.9762 99.2461 31.782 99.0453 31.6802C98.6844 31.4973 98.6425 31.4953 95.3031 31.4953C91.9636 31.4953 91.9217 31.4973 91.5608 31.6802ZM112.98 31.6187C112.576 31.7617 112.238 32.1246 112.123 32.5392C112.011 32.9425 112.005 50.5478 112.116 52.4613C112.261 54.9526 112.7 56.7714 113.567 58.4745C115.627 62.518 119.662 64.5476 125.642 64.5476C127.931 64.5476 129.588 64.3173 131.348 63.7545C135.167 62.5332 137.717 59.7909 138.713 55.8345C139.215 53.8388 139.197 54.3062 139.228 42.6582C139.249 34.9727 139.232 31.9442 139.166 31.8217C139.116 31.7283 138.979 31.6154 138.862 31.5709C138.679 31.5011 138.276 31.6499 135.928 32.655C134.431 33.2957 133.104 33.8917 132.979 33.9796C132.854 34.0674 132.688 34.2566 132.609 34.4C132.477 34.6416 132.463 35.3388 132.42 43.9104C132.375 52.9684 132.371 53.1748 132.2 53.8678C131.683 55.9749 130.75 57.2826 129.212 58.0556C128.11 58.6099 127.381 58.7482 125.601 58.7406C124.32 58.7352 123.976 58.7063 123.422 58.5581C120.739 57.84 119.313 55.9899 118.944 52.7491C118.892 52.2863 118.86 48.3812 118.86 42.3251C118.859 34.3332 118.839 32.5941 118.747 32.3726C118.604 32.0304 118.2 31.69 117.808 31.5811C117.32 31.4456 113.383 31.4763 112.98 31.6187ZM60.3682 36.697C59.7275 37.0643 59.743 36.947 59.743 41.451V45.4483L59.928 45.7201C60.0297 45.8696 60.2175 46.0693 60.3452 46.1639C60.5722 46.3321 60.6554 46.3359 64.0451 46.3359C67.4419 46.3359 67.5253 46.3321 68.1294 46.1449C69.8393 45.6152 71.1393 44.3006 71.5852 42.6503C71.8097 41.8188 71.7789 40.7193 71.5071 39.8647C71.1396 38.7096 70.1319 37.5553 69.018 37.0132C68.0201 36.5277 67.8522 36.5105 64.1039 36.512C60.7211 36.5134 60.6855 36.5151 60.3682 36.697ZM45.1695 39.3264L41.9013 41.7957V52.2551V62.7144L42.0883 62.9919C42.191 63.1445 42.4 63.3535 42.5526 63.4562C42.8254 63.6401 42.8698 63.6432 45.2312 63.6432C47.5925 63.6432 47.6369 63.6401 47.9097 63.4562C48.0623 63.3535 48.2714 63.1445 48.3741 62.9919L48.5611 62.7144V49.777C48.5611 42.6614 48.5334 36.8435 48.4994 36.8483C48.4655 36.8531 46.9671 37.9683 45.1695 39.3264ZM10.0014 75.3801C10.0031 76.8124 10.1283 77.5092 10.5295 78.3194C11.0496 79.3698 11.8902 80.1308 13.011 80.5663L13.5766 80.786L74.2379 80.8069C126.334 80.8248 134.978 80.8114 135.458 80.7112C137.16 80.3564 138.484 79.0778 138.968 77.3226C139.053 77.0151 139.118 76.3539 139.145 75.5034L139.189 74.1673H74.5944H10L10.0014 75.3801Z" fill="white"></path><path fill-rule="evenodd" clip-rule="evenodd" d="M42.929 31.5652C42.5755 31.6802 42.2379 31.9464 42.0725 32.2408C41.9034 32.5415 41.8998 32.6262 41.9208 35.8041L41.9423 39.0593L42.8504 38.3811C43.3499 38.0081 44.8391 36.896 46.1598 35.9099L48.561 34.1168V33.3364C48.561 32.8244 48.5211 32.4797 48.445 32.334C48.2709 32.0008 47.8846 31.6665 47.5687 31.5759C47.2619 31.488 43.1955 31.4786 42.929 31.5652Z" fill="#C4D01A"></path></svg>